<?xml version="1.0" encoding="UTF-8"?>
<svg width="1200" height="320" viewBox="0 0 1200 320" fill="none" xmlns="http://www.w3.org/2000/svg" role="img" aria-label="AIPCRP">
  <defs>
    <linearGradient id="bg" x1="40" y1="40" x2="1160" y2="280" gradientUnits="userSpaceOnUse">
      <stop offset="0" stop-color="#0B1220"/>
      <stop offset="0.5" stop-color="#0F172A"/>
      <stop offset="1" stop-color="#111827"/>
    </linearGradient>
    <linearGradient id="fg" x1="120" y1="72" x2="1080" y2="248" gradientUnits="userSpaceOnUse">
      <stop offset="0" stop-color="#22D3EE"/>
      <stop offset="0.55" stop-color="#34D399"/>
      <stop offset="1" stop-color="#A78BFA"/>
    </linearGradient>
    <pattern id="grid" width="24" height="24" patternUnits="userSpaceOnUse">
      <path d="M 24 0 L 0 0 0 24" stroke="#94A3B8" stroke-opacity="0.10" stroke-width="1"/>
    </pattern>
    <filter id="shadow" x="0" y="0" width="1400" height="520" filterUnits="userSpaceOnUse" color-interpolation-filters="sRGB">
      <feOffset dy="8"/>
      <feGaussianBlur stdDeviation="10"/>
      <feColorMatrix type="matrix" values="0 0 0 0 0   0 0 0 0 0   0 0 0 0 0   0 0 0 0.35 0"/>
      <feBlend mode="normal" in2="SourceGraphic"/>
    </filter>
    <filter id="softGlow" x="-20%" y="-20%" width="140%" height="140%" filterUnits="objectBoundingBox" color-interpolation-filters="sRGB">
      <feGaussianBlur stdDeviation="1.8" result="blur"/>
      <feColorMatrix in="blur" type="matrix" values="1 0 0 0 0  0 1 0 0 0  0 0 1 0 0  0 0 0 0.55 0" result="glow"/>
      <feMerge>
        <feMergeNode in="glow"/>
        <feMergeNode in="SourceGraphic"/>
      </feMerge>
    </filter>
  </defs>

  <!-- Background plate -->
  <g filter="url(#shadow)">
    <rect x="40" y="40" width="1120" height="240" rx="40" fill="url(#bg)"/>
    <rect x="40" y="40" width="1120" height="240" rx="40" fill="url(#grid)"/>
    <rect x="40" y="40" width="1120" height="240" rx="40" stroke="#94A3B8" stroke-opacity="0.25" stroke-width="2"/>
    <path d="M80 88H1120" stroke="#E2E8F0" stroke-opacity="0.08" stroke-width="2" stroke-linecap="round"/>
  </g>

  <!-- Brackets -->
  <g opacity="0.55" filter="url(#softGlow)" stroke="#60A5FA" stroke-width="10" stroke-linecap="round" stroke-linejoin="round">
    <path d="M92 110 C78 122 78 198 92 210" />
    <path d="M1108 110 C1122 122 1122 198 1108 210" />
  </g>

  <!-- Pixel wordmark: AIPCRP -->
  <g fill="url(#fg)" filter="url(#softGlow)" stroke="#020617" stroke-opacity="0.35" stroke-width="2">
    <!-- A -->
    <g transform="translate(108 65)">
      <rect x="28" y="0" width="22" height="22" rx="6"/>
      <rect x="56" y="0" width="22" height="22" rx="6"/>
      <rect x="84" y="0" width="22" height="22" rx="6"/>
      <rect x="0" y="28" width="22" height="22" rx="6"/>
      <rect x="112" y="28" width="22" height="22" rx="6"/>
      <rect x="0" y="56" width="22" height="22" rx="6"/>
      <rect x="112" y="56" width="22" height="22" rx="6"/>
      <rect x="0" y="84" width="22" height="22" rx="6"/>
      <rect x="28" y="84" width="22" height="22" rx="6"/>
      <rect x="56" y="84" width="22" height="22" rx="6"/>
      <rect x="84" y="84" width="22" height="22" rx="6"/>
      <rect x="112" y="84" width="22" height="22" rx="6"/>
      <rect x="0" y="112" width="22" height="22" rx="6"/>
      <rect x="112" y="112" width="22" height="22" rx="6"/>
      <rect x="0" y="140" width="22" height="22" rx="6"/>
      <rect x="112" y="140" width="22" height="22" rx="6"/>
      <rect x="0" y="168" width="22" height="22" rx="6"/>
      <rect x="112" y="168" width="22" height="22" rx="6"/>
    </g>

    <!-- I -->
    <g transform="translate(278 65)">
      <rect x="0" y="0" width="22" height="22" rx="6"/>
      <rect x="28" y="0" width="22" height="22" rx="6"/>
      <rect x="56" y="0" width="22" height="22" rx="6"/>
      <rect x="84" y="0" width="22" height="22" rx="6"/>
      <rect x="112" y="0" width="22" height="22" rx="6"/>
      <rect x="56" y="28" width="22" height="22" rx="6"/>
      <rect x="56" y="56" width="22" height="22" rx="6"/>
      <rect x="56" y="84" width="22" height="22" rx="6"/>
      <rect x="56" y="112" width="22" height="22" rx="6"/>
      <rect x="56" y="140" width="22" height="22" rx="6"/>
      <rect x="0" y="168" width="22" height="22" rx="6"/>
      <rect x="28" y="168" width="22" height="22" rx="6"/>
      <rect x="56" y="168" width="22" height="22" rx="6"/>
      <rect x="84" y="168" width="22" height="22" rx="6"/>
      <rect x="112" y="168" width="22" height="22" rx="6"/>
    </g>

    <!-- P -->
    <g transform="translate(448 65)">
      <rect x="0" y="0" width="22" height="22" rx="6"/>
      <rect x="28" y="0" width="22" height="22" rx="6"/>
      <rect x="56" y="0" width="22" height="22" rx="6"/>
      <rect x="84" y="0" width="22" height="22" rx="6"/>
      <rect x="0" y="28" width="22" height="22" rx="6"/>
      <rect x="112" y="28" width="22" height="22" rx="6"/>
      <rect x="0" y="56" width="22" height="22" rx="6"/>
      <rect x="112" y="56" width="22" height="22" rx="6"/>
      <rect x="0" y="84" width="22" height="22" rx="6"/>
      <rect x="28" y="84" width="22" height="22" rx="6"/>
      <rect x="56" y="84" width="22" height="22" rx="6"/>
      <rect x="84" y="84" width="22" height="22" rx="6"/>
      <rect x="0" y="112" width="22" height="22" rx="6"/>
      <rect x="0" y="140" width="22" height="22" rx="6"/>
      <rect x="0" y="168" width="22" height="22" rx="6"/>
    </g>

    <!-- C -->
    <g transform="translate(618 65)">
      <rect x="28" y="0" width="22" height="22" rx="6"/>
      <rect x="56" y="0" width="22" height="22" rx="6"/>
      <rect x="84" y="0" width="22" height="22" rx="6"/>
      <rect x="112" y="0" width="22" height="22" rx="6"/>
      <rect x="0" y="28" width="22" height="22" rx="6"/>
      <rect x="0" y="56" width="22" height="22" rx="6"/>
      <rect x="0" y="84" width="22" height="22" rx="6"/>
      <rect x="0" y="112" width="22" height="22" rx="6"/>
      <rect x="0" y="140" width="22" height="22" rx="6"/>
      <rect x="28" y="168" width="22" height="22" rx="6"/>
      <rect x="56" y="168" width="22" height="22" rx="6"/>
      <rect x="84" y="168" width="22" height="22" rx="6"/>
      <rect x="112" y="168" width="22" height="22" rx="6"/>
    </g>

    <!-- R -->
    <g transform="translate(788 65)">
      <rect x="0" y="0" width="22" height="22" rx="6"/>
      <rect x="28" y="0" width="22" height="22" rx="6"/>
      <rect x="56" y="0" width="22" height="22" rx="6"/>
      <rect x="84" y="0" width="22" height="22" rx="6"/>
      <rect x="0" y="28" width="22" height="22" rx="6"/>
      <rect x="112" y="28" width="22" height="22" rx="6"/>
      <rect x="0" y="56" width="22" height="22" rx="6"/>
      <rect x="112" y="56" width="22" height="22" rx="6"/>
      <rect x="0" y="84" width="22" height="22" rx="6"/>
      <rect x="28" y="84" width="22" height="22" rx="6"/>
      <rect x="56" y="84" width="22" height="22" rx="6"/>
      <rect x="84" y="84" width="22" height="22" rx="6"/>
      <rect x="0" y="112" width="22" height="22" rx="6"/>
      <rect x="56" y="112" width="22" height="22" rx="6"/>
      <rect x="0" y="140" width="22" height="22" rx="6"/>
      <rect x="84" y="140" width="22" height="22" rx="6"/>
      <rect x="0" y="168" width="22" height="22" rx="6"/>
      <rect x="112" y="168" width="22" height="22" rx="6"/>
    </g>

    <!-- P -->
    <g transform="translate(958 65)">
      <rect x="0" y="0" width="22" height="22" rx="6"/>
      <rect x="28" y="0" width="22" height="22" rx="6"/>
      <rect x="56" y="0" width="22" height="22" rx="6"/>
      <rect x="84" y="0" width="22" height="22" rx="6"/>
      <rect x="0" y="28" width="22" height="22" rx="6"/>
      <rect x="112" y="28" width="22" height="22" rx="6"/>
      <rect x="0" y="56" width="22" height="22" rx="6"/>
      <rect x="112" y="56" width="22" height="22" rx="6"/>
      <rect x="0" y="84" width="22" height="22" rx="6"/>
      <rect x="28" y="84" width="22" height="22" rx="6"/>
      <rect x="56" y="84" width="22" height="22" rx="6"/>
      <rect x="84" y="84" width="22" height="22" rx="6"/>
      <rect x="0" y="112" width="22" height="22" rx="6"/>
      <rect x="0" y="140" width="22" height="22" rx="6"/>
      <rect x="0" y="168" width="22" height="22" rx="6"/>
    </g>
  </g>
</svg>
